<?xml version="1.0" encoding="iso-8859-1"?>
<!-- Generator: Adobe Illustrator 19.0.0, SVG Export Plug-In . SVG Version: 6.00 Build 0)  -->
<svg version="1.1" id="Layer_1" xmlns="http://www.w3.org/2000/svg" xmlns:xlink="http://www.w3.org/1999/xlink" x="0px" y="0px"
	 viewBox="0 0 512 512" style="enable-background:new 0 0 512 512;" xml:space="preserve">
<path style="fill:#C1C1C1;" d="M503.916,137.432v301.811c0,11.906-9.651,21.558-21.558,21.558H29.642
	c-11.906,0-21.558-9.651-21.558-21.558V137.432c0-11.906,9.651-21.558,21.558-21.558h452.716
	C494.264,115.874,503.916,125.525,503.916,137.432z"/>
<path style="fill:#FE5A3A;" d="M191.326,72.758v64.674H40.421V72.758c0-11.906,9.651-21.558,21.558-21.558h107.789
	C181.675,51.2,191.326,60.851,191.326,72.758z"/>
<path style="fill:#DBDBDB;" d="M61.979,359.478v-94.856c0-11.906,9.651-21.558,21.558-21.558h161.684
	c11.906,0,21.558,9.651,21.558,21.558v94.856c0,11.906-9.651,21.558-21.558,21.558H83.537
	C71.63,381.036,61.979,371.383,61.979,359.478z"/>
<path style="fill:#FFFFFF;" d="M266.779,264.622v8.624l-81.868,38.526c-6.422,3.022-13.434,4.59-20.532,4.59
	s-14.109-1.567-20.532-4.59l-81.868-38.526v-8.624c0-11.906,9.651-21.558,21.558-21.558h161.684
	C257.127,243.064,266.779,252.716,266.779,264.622z"/>
<path style="fill:#FE9D5E;" d="M503.916,137.432v32.337H8.084v-32.337c0-11.906,9.651-21.558,21.558-21.558h452.716
	C494.264,115.874,503.916,125.525,503.916,137.432z"/>
<path d="M156.295,83.537c0,4.465-3.618,8.084-8.084,8.084h-1.078c-4.466,0-8.084-3.62-8.084-8.084s3.618-8.084,8.084-8.084h1.078
	C152.676,75.453,156.295,79.072,156.295,83.537z M83.537,75.453h-1.078c-4.466,0-8.084,3.62-8.084,8.084s3.618,8.084,8.084,8.084
	h1.078c4.466,0,8.084-3.62,8.084-8.084S88.003,75.453,83.537,75.453z M114.796,75.453h-1.078c-4.466,0-8.084,3.62-8.084,8.084
	s3.618,8.084,8.084,8.084h1.078c4.466,0,8.084-3.62,8.084-8.084S119.261,75.453,114.796,75.453z M274.863,264.622v94.855
	c0,16.345-13.298,29.642-29.642,29.642H83.537c-16.344,0.001-29.642-13.297-29.642-29.641v-94.855
	c0-16.345,13.298-29.642,29.642-29.642h161.684C261.565,234.98,274.863,248.277,274.863,264.622z M258.695,285.985l-70.342,33.102
	c-7.448,3.505-15.738,5.359-23.973,5.359c-8.234,0-16.524-1.853-23.973-5.359l-70.342-33.102v73.493
	c0,7.43,6.044,13.474,13.474,13.474h161.684c7.43,0,13.474-6.044,13.474-13.474V285.985z M258.695,264.622
	c0-7.43-6.044-13.474-13.474-13.474H83.537c-7.43,0-13.474,6.044-13.474,13.474v3.493l77.227,36.342
	c5.311,2.499,11.22,3.82,17.089,3.82c5.87,0,11.78-1.322,17.089-3.82l77.227-36.342V264.622z M512,137.432v301.811
	c0,16.345-13.298,29.642-29.642,29.642H29.642C13.298,468.884,0,455.587,0,439.242V137.432c0-16.345,13.298-29.642,29.642-29.642
	h2.695V72.758c0-16.345,13.298-29.642,29.642-29.642h107.789c16.344,0,29.642,13.297,29.642,29.642v35.032h282.947
	C498.702,107.789,512,121.086,512,137.432z M48.505,107.789h134.737V72.758c0-7.43-6.044-13.474-13.474-13.474H61.979
	c-7.43,0-13.474,6.044-13.474,13.474V107.789z M495.832,137.432c0-7.43-6.044-13.474-13.474-13.474H29.642
	c-7.43,0-13.474,6.044-13.474,13.474v24.253h390.737c4.466,0,8.084,3.62,8.084,8.084c0,4.465-3.618,8.084-8.084,8.084H16.168
	v261.389c0,7.43,6.044,13.474,13.474,13.474h452.716c7.43,0,13.474-6.044,13.474-13.474V177.853h-56.589
	c-4.466,0-8.084-3.62-8.084-8.084c0-4.465,3.618-8.084,8.084-8.084h56.589V137.432z M450.021,282.408H320.674
	c-4.466,0-8.084,3.62-8.084,8.084s3.618,8.084,8.084,8.084h129.347c4.466,0,8.084-3.62,8.084-8.084S454.487,282.408,450.021,282.408
	z M312.589,247.377c0,4.465,3.618,8.084,8.084,8.084h129.347c4.466,0,8.084-3.62,8.084-8.084c0-4.465-3.618-8.084-8.084-8.084
	H320.674C316.208,239.293,312.589,242.911,312.589,247.377z M394.586,368.64h-73.912c-4.466,0-8.084,3.62-8.084,8.084
	c0,4.465,3.618,8.084,8.084,8.084h73.912c4.466,0,8.084-3.62,8.084-8.084C402.67,372.26,399.052,368.64,394.586,368.64z
	 M450.021,325.524H320.674c-4.466,0-8.084,3.62-8.084,8.084s3.618,8.084,8.084,8.084h129.347c4.466,0,8.084-3.62,8.084-8.084
	S454.487,325.524,450.021,325.524z"/>
<g>
</g>
<g>
</g>
<g>
</g>
<g>
</g>
<g>
</g>
<g>
</g>
<g>
</g>
<g>
</g>
<g>
</g>
<g>
</g>
<g>
</g>
<g>
</g>
<g>
</g>
<g>
</g>
<g>
</g>
</svg>
